<svg width="560" height="400" viewBox="0 0 560 400" fill="none" xmlns="http://www.w3.org/2000/svg">
  <defs>
    <linearGradient id="panel" x1="56" y1="40" x2="472" y2="360" gradientUnits="userSpaceOnUse">
      <stop offset="0" stop-color="#F2FFE3" />
      <stop offset="1" stop-color="#A6F46A" />
    </linearGradient>
    <linearGradient id="accent" x1="120" y1="180" x2="320" y2="320" gradientUnits="userSpaceOnUse">
      <stop offset="0" stop-color="#D7FF9C" />
      <stop offset="1" stop-color="#6AE65C" />
    </linearGradient>
  </defs>
  <rect x="0" y="0" width="560" height="400" rx="36" fill="#E8FCD2" />
  <rect x="24" y="24" width="512" height="352" rx="28" fill="url(#panel)" />
  <rect x="56" y="56" width="448" height="56" rx="16" fill="rgba(255,255,255,0.65)" />
  <circle cx="88" cy="84" r="8" fill="#7DD111" />
  <circle cx="112" cy="84" r="8" fill="#B9F55C" />
  <circle cx="136" cy="84" r="8" fill="#E0FFC1" />
  <rect x="168" y="72" width="160" height="24" rx="12" fill="#ffffff" opacity="0.8" />
  <rect x="56" y="132" width="120" height="224" rx="20" fill="rgba(255,255,255,0.72)" />
  <rect x="72" y="156" width="88" height="20" rx="10" fill="#3D7022" opacity="0.65" />
  <rect x="72" y="188" width="88" height="16" rx="8" fill="#3D7022" opacity="0.35" />
  <rect x="72" y="216" width="88" height="16" rx="8" fill="#3D7022" opacity="0.35" />
  <rect x="72" y="244" width="88" height="16" rx="8" fill="#3D7022" opacity="0.35" />
  <rect x="72" y="272" width="88" height="16" rx="8" fill="#3D7022" opacity="0.35" />
  <rect x="72" y="300" width="88" height="16" rx="8" fill="#3D7022" opacity="0.35" />
  <rect x="200" y="148" width="304" height="120" rx="24" fill="rgba(255,255,255,0.78)" />
  <rect x="224" y="172" width="40" height="72" rx="12" fill="#B5F26A" />
  <rect x="276" y="160" width="40" height="84" rx="12" fill="#7DD111" />
  <rect x="328" y="184" width="40" height="60" rx="12" fill="#52B341" />
  <rect x="380" y="168" width="40" height="76" rx="12" fill="#89F066" />
  <rect x="432" y="176" width="40" height="68" rx="12" fill="#C4FF91" />
  <rect x="224" y="284" width="280" height="72" rx="20" fill="url(#accent)" opacity="0.95" />
  <rect x="236" y="296" width="180" height="16" rx="8" fill="#26481D" opacity="0.55" />
  <rect x="236" y="322" width="220" height="12" rx="6" fill="#26481D" opacity="0.35" />
  <rect x="472" y="304" width="24" height="24" rx="12" fill="#26481D" opacity="0.35" />
</svg>
