<svg xmlns="http://www.w3.org/2000/svg" width="355" height="100" fill="none" viewBox="0 0 355 100"><path fill="#fff" d="M70.756 33.15h3.4c.034.567.167 1.267.4 2.1.234.8.684 1.583 1.35 2.35.667.767 1.634 1.433 2.9 2 1.267.533 2.95.8 5.05.8 2.634 0 4.734-.5 6.3-1.5 1.6-1 2.4-2.583 2.4-4.75 0-1.733-.5-3.117-1.5-4.15-1-1.033-2.266-1.9-3.8-2.6a36.612 36.612 0 00-4.9-1.95 31.434 31.434 0 01-4.95-2.05c-1.5-.8-2.75-1.8-3.75-3s-1.5-2.783-1.5-4.75c0-1.5.3-2.833.9-4a8.766 8.766 0 012.5-2.9c1.067-.767 2.284-1.35 3.65-1.75 1.4-.4 2.867-.6 4.4-.6 1.467 0 2.867.183 4.2.55 1.367.333 2.584.85 3.65 1.55a9.047 9.047 0 012.65 2.5c.7.967 1.15 2.067 1.35 3.3h-3.4c-.266-1.967-1.166-3.4-2.7-4.3-1.5-.933-3.333-1.4-5.5-1.4-1.3 0-2.45.167-3.45.5-1 .3-1.85.717-2.55 1.25-.666.5-1.183 1.1-1.55 1.8-.333.7-.5 1.45-.5 2.25 0 1.433.517 2.583 1.55 3.45 1.034.867 2.317 1.633 3.85 2.3a67.08 67.08 0 005.05 1.9c1.834.6 3.517 1.35 5.05 2.25 1.567.867 2.867 1.967 3.9 3.3 1.034 1.3 1.55 2.983 1.55 5.05 0 1.5-.3 2.867-.9 4.1a8.957 8.957 0 01-2.55 3.15c-1.1.867-2.433 1.533-4 2-1.533.467-3.266.7-5.2.7-1.9 0-3.65-.217-5.25-.65-1.6-.467-3-1.1-4.2-1.9-1.166-.833-2.1-1.833-2.8-3-.666-1.167-1.033-2.467-1.1-3.9zm39.95-5.75V42h-4.55V7h11.7c1.934 0 3.617.283 5.05.85 1.434.567 2.617 1.333 3.55 2.3a8.639 8.639 0 012.15 3.35c.467 1.267.7 2.6.7 4 0 1.467-.266 2.85-.8 4.15-.533 1.267-1.333 2.4-2.4 3.4-1.033.967-2.333 1.733-3.9 2.3-1.566.567-3.366.85-5.4.85-1.2 0-2.3-.067-3.3-.2a29.57 29.57 0 01-2.8-.6zm0-18.2v16.15c.7.267 1.484.45 2.35.55.867.067 1.817.1 2.85.1 1.5 0 2.784-.25 3.85-.75 1.067-.5 1.95-1.15 2.65-1.95s1.2-1.683 1.5-2.65c.334-1 .5-1.983.5-2.95 0-1-.183-2-.55-3a7.73 7.73 0 00-1.55-2.75c-.7-.833-1.583-1.5-2.65-2-1.066-.5-2.3-.75-3.7-.75h-5.25zM136.82 7h22.6v2.75h-18.05V22.3h15.5v2.3h-15.5v14.65h18.05V42h-22.6V7zm59.528 28.55l1.5 1.35c-.433.5-1.066 1.083-1.9 1.75-.833.667-1.883 1.3-3.15 1.9-1.233.567-2.7 1.05-4.4 1.45-1.666.4-3.566.6-5.7.6-3.366 0-6.266-.517-8.7-1.55-2.433-1.067-4.433-2.45-6-4.15a17.127 17.127 0 01-3.5-5.9 21.832 21.832 0 01-1.1-6.85c0-2.7.467-5.133 1.4-7.3.934-2.2 2.25-4.067 3.95-5.6 1.7-1.567 3.734-2.767 6.1-3.6 2.4-.833 5.05-1.25 7.95-1.25 2 0 3.784.2 5.35.6 1.567.4 2.934.95 4.1 1.65 1.167.7 2.134 1.533 2.9 2.5.8.967 1.45 2.017 1.95 3.15h-3.7c-.233-.7-.65-1.383-1.25-2.05-.566-.7-1.316-1.317-2.25-1.85-.9-.533-1.95-.967-3.15-1.3-1.166-.333-2.466-.5-3.9-.5-2.1 0-4.05.383-5.85 1.15a13.938 13.938 0 00-4.6 3.2c-1.3 1.367-2.316 3-3.05 4.9-.7 1.867-1.05 3.933-1.05 6.2 0 2.133.334 4.183 1 6.15.7 1.967 1.717 3.7 3.05 5.2 1.334 1.5 3 2.7 5 3.6 2 .9 4.3 1.35 6.9 1.35 4.667 0 8.7-1.6 12.1-4.8zM206.838 7h4.55v35h-4.55V7zm38.007 24.7h-17.25l-4.4 10.3h-2.3l14.8-35h2.5l16.3 35h-4.85l-4.8-10.3zm-1.05-2.25l-7.85-16.85h-.2l-7.2 16.85h15.25zM262.016 42V7h4.55v32.25h18.05V42h-22.6zM65.856 85.55l1.5 1.35c-.434.5-1.067 1.083-1.9 1.75-.834.667-1.884 1.3-3.15 1.9-1.234.567-2.7 1.05-4.4 1.45-1.667.4-3.567.6-5.7.6-3.367 0-6.267-.517-8.7-1.55-2.434-1.067-4.434-2.45-6-4.15a17.11 17.11 0 01-3.5-5.9 21.82 21.82 0 01-1.1-6.85c0-2.7.466-5.133 1.4-7.3.933-2.2 2.25-4.067 3.95-5.6 1.7-1.567 3.733-2.767 6.1-3.6 2.4-.833 5.05-1.25 7.95-1.25 2 0 3.783.2 5.35.6 1.566.4 2.933.95 4.1 1.65 1.166.7 2.133 1.533 2.9 2.5.8.967 1.45 2.017 1.95 3.15h-3.7c-.234-.7-.65-1.383-1.25-2.05-.567-.7-1.317-1.317-2.25-1.85-.9-.533-1.95-.967-3.15-1.3-1.167-.333-2.467-.5-3.9-.5-2.1 0-4.05.383-5.85 1.15a13.93 13.93 0 00-4.6 3.2c-1.3 1.367-2.317 3-3.05 4.9-.7 1.867-1.05 3.933-1.05 6.2 0 2.133.333 4.183 1 6.15.7 1.967 1.716 3.7 3.05 5.2 1.333 1.5 3 2.7 5 3.6 2 .9 4.3 1.35 6.9 1.35 4.666 0 8.7-1.6 12.1-4.8zm4.989-11.05c0-1.9.35-3.917 1.05-6.05.733-2.133 1.866-4.083 3.4-5.85 1.533-1.8 3.483-3.283 5.85-4.45 2.366-1.167 5.2-1.75 8.5-1.75 3.333 0 6.216.6 8.65 1.8 2.466 1.167 4.5 2.65 6.1 4.45 1.6 1.8 2.783 3.767 3.55 5.9.766 2.1 1.15 4.083 1.15 5.95 0 1.233-.184 2.533-.55 3.9a18.761 18.761 0 01-1.55 4.1c-.667 1.333-1.534 2.617-2.6 3.85-1.067 1.2-2.334 2.267-3.8 3.2-1.434.933-3.067 1.683-4.9 2.25-1.8.533-3.817.8-6.05.8-3.3 0-6.134-.583-8.5-1.75-2.367-1.2-4.317-2.7-5.85-4.5-1.534-1.8-2.667-3.75-3.4-5.85-.7-2.133-1.05-4.133-1.05-6zm4.9 0c0 2.333.35 4.483 1.05 6.45.733 1.933 1.716 3.6 2.95 5 1.266 1.4 2.75 2.5 4.45 3.3 1.7.767 3.55 1.15 5.55 1.15 1.966 0 3.816-.383 5.55-1.15 1.766-.8 3.3-1.9 4.6-3.3 1.333-1.4 2.383-3.067 3.15-5 .766-1.967 1.15-4.117 1.15-6.45s-.384-4.467-1.15-6.4c-.767-1.967-1.817-3.65-3.15-5.05a13.591 13.591 0 00-4.6-3.25c-1.734-.8-3.584-1.2-5.55-1.2-2 0-3.85.4-5.55 1.2a13.34 13.34 0 00-4.45 3.25c-1.234 1.4-2.217 3.083-2.95 5.05-.7 1.933-1.05 4.067-1.05 6.4zM145.806 57h2.3v35.6h-.25l-27.75-27.35h-.2V92h-2.3V56.4h.25l27.75 27.35h.2V57zm27.231 35h-4.55V59.75h-13.4V57h31.35v2.75h-13.4V92zm20.4-35h22.6v2.75h-18.05V72.3h15.5v2.3h-15.5v14.65h18.05V92h-22.6V57zm58.278 0h2.3v35.6h-.25l-27.75-27.35h-.2V92h-2.3V56.4h.25l27.75 27.35h.2V57zm27.23 35h-4.55V59.75h-13.4V57h31.35v2.75h-13.4V92zm16.25-8.85h3.4c.033.567.166 1.267.4 2.1.233.8.683 1.583 1.35 2.35.666.767 1.633 1.433 2.9 2 1.266.533 2.95.8 5.05.8 2.633 0 4.733-.5 6.3-1.5 1.6-1 2.4-2.583 2.4-4.75 0-1.733-.5-3.117-1.5-4.15-1-1.033-2.267-1.9-3.8-2.6a36.644 36.644 0 00-4.9-1.95 31.41 31.41 0 01-4.95-2.05c-1.5-.8-2.75-1.8-3.75-3s-1.5-2.783-1.5-4.75c0-1.5.3-2.833.9-4a8.756 8.756 0 012.5-2.9c1.066-.767 2.283-1.35 3.65-1.75 1.4-.4 2.866-.6 4.4-.6 1.466 0 2.866.183 4.2.55 1.366.333 2.583.85 3.65 1.55a9.055 9.055 0 012.65 2.5c.7.967 1.15 2.067 1.35 3.3h-3.4c-.267-1.967-1.167-3.4-2.7-4.3-1.5-.933-3.334-1.4-5.5-1.4-1.3 0-2.45.167-3.45.5-1 .3-1.85.717-2.55 1.25-.667.5-1.184 1.1-1.55 1.8-.334.7-.5 1.45-.5 2.25 0 1.433.516 2.583 1.55 3.45 1.033.867 2.316 1.633 3.85 2.3 1.566.667 3.25 1.3 5.05 1.9a25.81 25.81 0 015.05 2.25c1.566.867 2.866 1.967 3.9 3.3 1.033 1.3 1.55 2.983 1.55 5.05 0 1.5-.3 2.867-.9 4.1a8.957 8.957 0 01-2.55 3.15c-1.1.867-2.434 1.533-4 2-1.534.467-3.267.7-5.2.7-1.9 0-3.65-.217-5.25-.65-1.6-.467-3-1.1-4.2-1.9-1.167-.833-2.1-1.833-2.8-3-.667-1.167-1.034-2.467-1.1-3.9z"/><path fill="#fff" d="M90.498 78c-.832-1.358-2.14-2.666-3.498-3.498 1.358-.836 2.662-2.144 3.498-3.502A11.215 11.215 0 0094 74.502c-1.358.836-2.666 2.144-3.502 3.498z"/></svg>